<?xml version="1.0" standalone="no"?>
<!DOCTYPE svg PUBLIC "-//W3C//DTD SVG 20010904//EN"
 "http://www.w3.org/TR/2001/REC-SVG-20010904/DTD/svg10.dtd">
<svg version="1.0" xmlns="http://www.w3.org/2000/svg"
 width="512.000000pt" height="512.000000pt" viewBox="0 0 512.000000 512.000000"
 preserveAspectRatio="xMidYMid meet">
<metadata>
Created by potrace 1.11, written by Peter Selinger 2001-2013
</metadata>
<g transform="translate(0.000000,512.000000) scale(0.100000,-0.100000)"
fill="#000000" stroke="none">
<path d="M0 2560 l0 -2560 2560 0 2560 0 0 2560 0 2560 -2560 0 -2560 0 0
-2560z m2258 1285 l294 -395 221 293 c122 161 256 339 297 395 l75 101 478 1
477 0 -2 -1632 -3 -1633 -472 -3 -473 -2 -2 840 -3 840 -296 -395 -297 -396
-288 391 c-263 355 -290 387 -295 362 -4 -15 -7 -390 -8 -834 l-1 -808 -470 0
-470 0 0 1635 0 1635 473 0 472 0 293 -395z"/>
</g>
</svg>
